<?xml version="1.0" encoding="utf-8"?>
<!-- Generator: Adobe Illustrator 18.0.0, SVG Export Plug-In . SVG Version: 6.00 Build 0)  -->
<!DOCTYPE svg PUBLIC "-//W3C//DTD SVG 1.1//EN" "http://www.w3.org/Graphics/SVG/1.1/DTD/svg11.dtd">
<svg version="1.1" xmlns="http://www.w3.org/2000/svg" xmlns:xlink="http://www.w3.org/1999/xlink" x="0px" y="0px"
	 viewBox="0 0 560 560" enable-background="new 0 0 560 560" xml:space="preserve">
<g id="Layer_1" display="none">
</g>
<g id="Layer_2">
	<circle fill="#BB3C38" cx="279.5" cy="280.1" r="279.6"/>
</g>
<g id="Layer_6">
</g>
<g id="Layer_3">
	<path fill="#FFFFFF" stroke="#FFFFFF" stroke-width="10.4253" stroke-miterlimit="10" d="M371.9,403.8
		c-52.5,28.3-89.8,35-149.8,27.2c-60-7.8-125.5-54.5-111.7-146.5C143.3,112.5,380,124.4,380,124.4L351.4,186
		c0,0-39.7-2.3-100.1,28.1s-71.5,58-74.4,84.5c-3,26.5,7.3,57.3,46,68.7s69.4,8.7,97.9,0.5c28.5-8.2,75.4-34.4,75.4-34.4
		L371.9,403.8z"/>
	<circle fill="none" stroke="#FFFFFF" stroke-width="5.2126" stroke-miterlimit="10" cx="279.5" cy="280.1" r="254.3"/>
	
		<ellipse fill="#FFFFFF" stroke="#FFFFFF" stroke-width="10.4253" stroke-miterlimit="10" cx="381.1" cy="186.6" rx="62.1" ry="62"/>
</g>
<g id="Layer_7">
	<circle fill="none" stroke="#FFFFFF" stroke-width="5.2126" stroke-miterlimit="10" cx="279.5" cy="280.1" r="236"/>
</g>
<g id="Layer_5" display="none">
	<circle display="inline" fill="none" cx="279.5" cy="280.1" r="107.3"/>
	<g id="Layer_4" display="inline">
		<radialGradient id="SVGID_1_" cx="232.5298" cy="211.1126" r="107.2848" gradientUnits="userSpaceOnUse">
			<stop  offset="0" style="stop-color:#FFFFFF;stop-opacity:0.6"/>
			<stop  offset="1" style="stop-color:#FFFFFF;stop-opacity:0"/>
		</radialGradient>
		<path fill="url(#SVGID_1_)" d="M339.8,211.1c0,59.3-48,107.3-107.3,107.3c-21.5,0-41.4-6.3-58.2-17.1
			c-29.5-19.1-49.1-52.3-49.1-90.1c0-59.3,48-107.3,107.3-107.3c52,0,95.4,37,105.2,86.1C339.1,196.8,339.8,203.9,339.8,211.1z"/>
	</g>
</g>
</svg>
